<svg id="Layer_1" data-name="Layer 1" xmlns="http://www.w3.org/2000/svg" xmlns:xlink="http://www.w3.org/1999/xlink" viewBox="0 0 399 512"><defs><style>.cls-1{fill:#4a72b8;}.cls-2{fill:url(#linear-gradient);}.cls-3{fill:none;}.cls-4{fill:#93b2de;}.cls-5,.cls-8,.cls-9{fill:#fff;}.cls-5,.cls-6{fill-opacity:0.2;}.cls-6,.cls-7{fill:#2d3079;}.cls-7{fill-opacity:0.1;}.cls-8{fill-rule:evenodd;}</style><linearGradient id="linear-gradient" x1="293.47" y1="379.78" x2="293.47" y2="266.34" gradientTransform="matrix(1, 0, 0, -1, 0, 535.46)" gradientUnits="userSpaceOnUse"><stop offset="0" stop-color="#2d3079" stop-opacity="0.2"/><stop offset="1" stop-color="#2d3079" stop-opacity="0.02"/></linearGradient></defs><path class="cls-1" d="M222.08,21H33.24A33.54,33.54,0,0,0,0,54.23V478a33.54,33.54,0,0,0,33.24,33.24H321.8A33.54,33.54,0,0,0,355,478V154.7L277.23,98.8Z"/><path class="cls-2" d="M231.91,144.87,355,269.52V154.7Z"/><rect class="cls-3" x="200.12" width="198.88" height="198.88"/><path class="cls-4" d="M221.61,21.33V121.8A33.54,33.54,0,0,0,254.85,155h99.71Z"/><path class="cls-5" d="M33.24,21A33.54,33.54,0,0,0,0,54.23v3A33.54,33.54,0,0,1,33.24,24H222.08V21Z"/><path class="cls-6" d="M321.8,509H33.24A33.54,33.54,0,0,1,0,475.74v3A33.54,33.54,0,0,0,33.24,512H321.8A33.54,33.54,0,0,0,355,478.76v-3A33.54,33.54,0,0,1,321.8,509Z"/><path class="cls-7" d="M255.32,154.7a33.54,33.54,0,0,1-33.24-33.24v3a33.54,33.54,0,0,0,33.24,33.24H355v-3Z"/><path class="cls-8" d="M167,211.93a15.23,15.23,0,0,0-15.23,15.23v66.09a5.68,5.68,0,0,1-5.68,5.68H80a15.22,15.22,0,0,0-15.22,15.23V326.4A15.22,15.22,0,0,0,80,341.63h66.1a5.69,5.69,0,0,1,5.68,5.69v66.09A15.22,15.22,0,0,0,167,428.63h12.24a15.22,15.22,0,0,0,15.23-15.22V347.32a5.68,5.68,0,0,1,5.68-5.69h66.09a15.23,15.23,0,0,0,15.23-15.23V314.16a15.23,15.23,0,0,0-15.23-15.23H200.19a5.68,5.68,0,0,1-5.68-5.68V227.16a15.23,15.23,0,0,0-15.23-15.23Z"/><rect class="cls-9" x="64.21" y="288.86" width="223.65" height="60.35" rx="25.38"/><rect class="cls-9" x="145.86" y="207.21" width="60.35" height="223.65" rx="25.38"/></svg>